<svg width="49" height="48" viewBox="0 0 49 48" fill="white" xmlns="http://www.w3.org/2000/svg">
<path d="M46.4999 23L40.3999 20.74C39.8799 18.44 38.5799 17.12 38.5799 17.12C37.8018 16.3403 36.8774 15.7217 35.8599 15.2996C34.8423 14.8775 33.7516 14.6603 32.6499 14.6603C31.5483 14.6603 30.4575 14.8775 29.44 15.2996C28.4224 15.7217 27.4981 16.3403 26.7199 17.12L23.7599 20.08L10.4999 6C8.49994 14 10.4999 22 15.3999 28.44L4.49994 39C4.49994 39 22.2799 43 32.6399 34.9C38.1599 30.58 39.3999 28.06 40.1799 25.4L46.4999 23ZM35.9199 23.44C35.1399 24.22 33.8599 24.22 33.0799 23.44C32.8945 23.255 32.7474 23.0352 32.6471 22.7932C32.5467 22.5513 32.4951 22.2919 32.4951 22.03C32.4951 21.7681 32.5467 21.5087 32.6471 21.2668C32.7474 21.0248 32.8945 20.805 33.0799 20.62C33.8599 19.84 35.1399 19.84 35.9199 20.62C36.6999 21.4 36.6999 22.66 35.9199 23.44Z"/>
</svg>
