<svg width="49" height="48" viewBox="0 0 49 48" fill="white" xmlns="http://www.w3.org/2000/svg">
<path d="M17.6429 4C16.4115 4 15.2306 4.48916 14.3599 5.35986C13.4892 6.23057 13 7.41149 13 8.64286V39.3571C13 40.5885 13.4892 41.7694 14.3599 42.6401C15.2306 43.5108 16.4115 44 17.6429 44H34.0714C35.3028 44 36.4837 43.5108 37.3544 42.6401C38.2251 41.7694 38.7143 40.5885 38.7143 39.3571V8.64286C38.7143 7.41149 38.2251 6.23057 37.3544 5.35986C36.4837 4.48916 35.3028 4 34.0714 4H17.6429ZM23 35.4286H28.7143C29.0932 35.4286 29.4565 35.5791 29.7244 35.847C29.9923 36.1149 30.1429 36.4783 30.1429 36.8571C30.1429 37.236 29.9923 37.5994 29.7244 37.8673C29.4565 38.1352 29.0932 38.2857 28.7143 38.2857H23C22.6211 38.2857 22.2578 38.1352 21.9898 37.8673C21.7219 37.5994 21.5714 37.236 21.5714 36.8571C21.5714 36.4783 21.7219 36.1149 21.9898 35.847C22.2578 35.5791 22.6211 35.4286 23 35.4286Z" />
</svg>
