<svg width="49" height="48" viewBox="0 0 49 48" fill="white" xmlns="http://www.w3.org/2000/svg">
<path fill-rule="evenodd" clip-rule="evenodd" d="M43.2714 32.1621C43.2714 28.0953 40.114 25.1305 34.6187 24.0318L34.4653 23.9992C33.9062 23.4905 33.5448 22.8007 33.4449 22.0515L31.2197 10.6773C30.9226 8.32635 29.1528 4 24.4967 4C19.7965 4 18.0382 8.40798 17.7835 10.6201L15.5665 21.9699C15.2187 23.3625 14.7339 23.8849 14.5281 24.0008L14.3812 24.0318C8.87777 25.1305 5.72852 28.0953 5.72852 32.1621C5.76743 33.6607 6.19546 35.1234 6.97056 36.4065C7.74567 37.6897 8.8412 38.7492 10.1496 39.481C10.1597 39.4872 10.1676 39.4953 10.1754 39.5034C10.184 39.5121 10.1924 39.5207 10.2034 39.5267C10.253 39.5537 10.3026 39.5768 10.352 39.5998C10.3919 39.6183 10.4318 39.6369 10.4712 39.6573L10.5757 39.7079C11.3046 40.0942 12.1147 40.3023 12.9396 40.3152C12.9821 40.3236 13.0254 40.3269 13.0686 40.325L13.2482 40.3152H13.2955C14.35 40.1896 15.419 40.2784 16.4383 40.5764C16.5526 40.6172 16.6587 40.6809 16.7485 40.7625C17.7459 41.8085 18.9496 42.6361 20.2832 43.193C21.6169 43.75 23.0516 44.0242 24.4967 43.9983C25.9436 44.0238 27.38 43.7485 28.7149 43.1898C30.0498 42.6311 31.2541 41.8012 32.2515 40.7527C32.3019 40.701 32.361 40.6584 32.4262 40.627H32.4376C32.4476 40.6228 32.4594 40.6185 32.4716 40.6141C32.4874 40.6084 32.5038 40.6025 32.5176 40.596C33.5636 40.2799 34.6643 40.1871 35.7485 40.3234L35.9248 40.325C35.9721 40.325 36.0211 40.325 36.0685 40.3152C36.8825 40.2984 37.6816 40.0933 38.4031 39.7161L38.5418 39.6491L38.7965 39.5267C38.8076 39.5207 38.816 39.5121 38.8245 39.5034C38.8323 39.4953 38.8402 39.4872 38.8504 39.481C40.1589 38.7493 41.2545 37.6899 42.0296 36.4067C42.8047 35.1235 43.2327 33.6607 43.2714 32.1621ZM16.1588 35.1777C13.4179 34.1373 11.0256 35.5893 10.3696 36.1684C10.3696 36.1684 12.1114 38.5477 14.1617 39.219C16.1588 39.8729 19.7224 39.3974 19.7224 39.3974C19.4908 38.2396 18.8997 36.2181 16.1588 35.1777ZM32.8503 35.1777C35.5912 34.1373 37.9835 35.5894 38.6396 36.1684C38.6396 36.1684 36.8978 38.5478 34.8475 39.219C32.8503 39.8729 29.2867 39.3975 29.2867 39.3975C29.5183 38.2396 30.1094 36.2181 32.8503 35.1777Z"/>
</svg>
