<svg width="48" height="48" viewBox="0 0 48 48" fill="white" xmlns="http://www.w3.org/2000/svg">
<path d="M12.0002 8C10.9394 8 9.92196 8.42143 9.17182 9.17157C8.42167 9.92172 8.00024 10.9391 8.00024 12V36C8.00024 37.0609 8.42167 38.0783 9.17182 38.8284C9.92196 39.5786 10.9394 40 12.0002 40H16.0002C17.0611 40 18.0785 39.5786 18.8287 38.8284C19.5788 38.0783 20.0002 37.0609 20.0002 36V12C20.0002 10.9391 19.5788 9.92172 18.8287 9.17157C18.0785 8.42143 17.0611 8 16.0002 8H12.0002ZM32.0002 8C30.9394 8 29.922 8.42143 29.1718 9.17157C28.4217 9.92172 28.0002 10.9391 28.0002 12V36C28.0002 37.0609 28.4217 38.0783 29.1718 38.8284C29.922 39.5786 30.9394 40 32.0002 40H36.0002C37.0611 40 38.0785 39.5786 38.8287 38.8284C39.5788 38.0783 40.0002 37.0609 40.0002 36V12C40.0002 10.9391 39.5788 9.92172 38.8287 9.17157C38.0785 8.42143 37.0611 8 36.0002 8H32.0002Z"/>
</svg>
