<svg width="49" height="48" viewBox="0 0 49 48" fill="white" xmlns="http://www.w3.org/2000/svg">
<path d="M34.5 27C35.6935 27 36.8381 27.4741 37.682 28.318C38.5259 29.1619 39 30.3065 39 31.5V32.5725C39 37.938 32.685 42 24 42C15.315 42 9 38.1495 9 32.5725V31.5C9 30.3065 9.47411 29.1619 10.318 28.318C11.1619 27.4741 12.3065 27 13.5 27H34.5ZM24 6C25.1819 6 26.3522 6.23279 27.4442 6.68508C28.5361 7.13738 29.5282 7.80031 30.364 8.63604C31.1997 9.47177 31.8626 10.4639 32.3149 11.5558C32.7672 12.6478 33 13.8181 33 15C33 16.1819 32.7672 17.3522 32.3149 18.4442C31.8626 19.5361 31.1997 20.5282 30.364 21.364C29.5282 22.1997 28.5361 22.8626 27.4442 23.3149C26.3522 23.7672 25.1819 24 24 24C21.6131 24 19.3239 23.0518 17.636 21.364C15.9482 19.6761 15 17.3869 15 15C15 12.6131 15.9482 10.3239 17.636 8.63604C19.3239 6.94821 21.6131 6 24 6Z"/>
</svg>
